HIERARCHY
ROOT joint_0
{
	OFFSET 0.000000 0.000000 0.000000
	CHANNELS 6 Xposition Yposition Zposition Zrotation Yrotation Xrotation 
	JOINT joint_1
	{
		OFFSET 7.566162 2.250183 114.799927
		CHANNELS 3 Zrotation Yrotation Xrotation
		JOINT joint_2
		{
			OFFSET -5.201660 -0.414001 104.936035
			CHANNELS 3 Zrotation Yrotation Xrotation
			JOINT joint_3
			{
				OFFSET -6.923584 -0.419739 104.718018
				CHANNELS 3 Zrotation Yrotation Xrotation
				JOINT joint_4
				{
					OFFSET 3.108887 2.881104 149.449951
					CHANNELS 3 Zrotation Yrotation Xrotation
					JOINT joint_5
					{
						OFFSET 19.988770 5.920349 90.786987
						CHANNELS 3 Zrotation Yrotation Xrotation
						End Site
						{
							OFFSET 0.000000 0.000000 0.000000
						}
					}
				}
				JOINT joint_6
				{
					OFFSET 9.283936 -30.015930 84.410034
					CHANNELS 3 Zrotation Yrotation Xrotation
					JOINT joint_7
					{
						OFFSET 47.243164 -155.716736 -23.241089
						CHANNELS 3 Zrotation Yrotation Xrotation
						JOINT joint_8
						{
							OFFSET 31.323730 -15.356873 -268.798950
							CHANNELS 3 Zrotation Yrotation Xrotation
							JOINT joint_9
							{
								OFFSET 28.122314 -2.114624 -262.450012
								CHANNELS 3 Zrotation Yrotation Xrotation
								End Site
								{
									OFFSET 0.000000 0.000000 0.000000
								}
							}
						}
					}
				}
				JOINT joint_10
				{
					OFFSET -5.580566 33.311218 83.498047
					CHANNELS 3 Zrotation Yrotation Xrotation
					JOINT joint_11
					{
						OFFSET -22.773438 160.515381 -27.138062
						CHANNELS 3 Zrotation Yrotation Xrotation
						JOINT joint_12
						{
							OFFSET 27.004395 30.848877 -267.937988
							CHANNELS 3 Zrotation Yrotation Xrotation
							JOINT joint_13
							{
								OFFSET 32.625000 14.824585 -261.518005
								CHANNELS 3 Zrotation Yrotation Xrotation
								End Site
								{
									OFFSET 0.000000 0.000000 0.000000
								}
							}
						}
					}
				}
			}
		}
	}
	JOINT joint_14
	{
		OFFSET 20.623535 -83.447632 -106.174011
		CHANNELS 3 Zrotation Yrotation Xrotation
		JOINT joint_15
		{
			OFFSET 0.661865 -23.563843 -459.915039
			CHANNELS 3 Zrotation Yrotation Xrotation
			JOINT joint_16
			{
				OFFSET -23.461670 -28.727966 -444.760971
				CHANNELS 3 Zrotation Yrotation Xrotation
				JOINT joint_17
				{
					OFFSET 178.992920 54.047363 -80.113001
					CHANNELS 3 Zrotation Yrotation Xrotation
					End Site
					{
						OFFSET 0.000000 0.000000 0.000000
					}
				}
			}
		}
	}
	JOINT joint_18
	{
		OFFSET -19.571533 84.686279 -105.380005
		CHANNELS 3 Zrotation Yrotation Xrotation
		JOINT joint_19
		{
			OFFSET -22.949951 3.639404 -459.933044
			CHANNELS 3 Zrotation Yrotation Xrotation
			JOINT joint_20
			{
				OFFSET -33.690674 4.092651 -445.010971
				CHANNELS 3 Zrotation Yrotation Xrotation
				JOINT joint_21
				{
					OFFSET 187.419678 18.953857 -76.759001
					CHANNELS 3 Zrotation Yrotation Xrotation
					End Site
					{
						OFFSET 0.000000 0.000000 0.000000
					}
				}
			}
		}
	}
}
MOTION
Frames: 10
Frame Time: 0.016667
-2981.344482 858.048462 1102.479004 -14.991227 1.566369 -3.071203 0.649806 5.769842 2.149344 0.364931 -1.041058 -0.581849 0.439009 1.301879 0.302179 -0.493808 -0.542015 2.345043 0.000000 0.000000 0.000000 -0.462364 4.058175 -3.097971 0.462886 2.467382 -6.441888 6.905561 -36.762009 40.076758 0.000000 0.000000 0.000000 4.607624 9.372310 0.488976 9.047659 10.277746 7.629547 -1.031110 -61.276614 -24.318768 0.000000 0.000000 0.000000 4.917371 -6.809160 -4.230045 3.861666 10.614518 -0.322372 4.567722 -5.201677 3.560670 0.000000 0.000000 0.000000 1.408696 -6.005923 8.693581 1.680666 19.541282 -3.063463 -0.292279 -8.020050 0.721681 0.000000 0.000000 0.000000 
-2984.473633 858.696472 1103.621948 -15.534694 1.826234 -3.151581 0.616231 5.637646 1.907256 0.329875 -1.064572 -0.523241 0.395717 1.327205 0.268141 -0.486261 -0.517582 2.299477 0.000000 0.000000 0.000000 -0.452095 3.872478 -2.892375 0.694846 2.272274 -6.243291 7.110667 -36.822447 39.675597 0.000000 0.000000 0.000000 4.628219 9.203591 0.550287 9.368061 10.200038 7.828458 -0.855838 -61.304047 -24.706170 0.000000 0.000000 0.000000 4.755507 -6.727361 -4.318134 3.772754 9.368618 -0.292187 4.436371 -5.387796 3.561381 0.000000 0.000000 0.000000 1.482051 -6.112970 8.637370 1.721553 18.873649 -2.820031 -0.177150 -7.595934 0.723137 0.000000 0.000000 0.000000 
-2988.011719 858.996643 1104.952026 -16.260504 2.014102 -3.328884 0.721741 5.546582 1.884235 0.409807 -0.998974 -0.495969 0.469317 1.261784 0.248628 -0.455827 -0.593265 2.179980 0.000000 0.000000 0.000000 -0.451816 3.643767 -2.950329 0.935804 2.229544 -5.706950 7.264600 -36.670520 39.097553 0.000000 0.000000 0.000000 4.611033 8.984086 0.661660 9.562315 10.046165 7.854052 -0.737176 -60.950788 -24.932011 0.000000 0.000000 0.000000 4.596668 -6.939792 -4.316198 3.634692 8.725023 -0.161083 4.297094 -5.840779 3.637693 0.000000 0.000000 0.000000 1.722525 -6.123468 8.726727 1.944226 18.204970 -2.700958 0.120880 -7.250887 0.805606 0.000000 0.000000 0.000000 
-2991.795654 858.904297 1106.524048 -17.055827 2.160754 -3.539949 0.896825 5.484944 1.969216 0.549611 -0.890677 -0.482805 0.604387 1.154777 0.236016 -0.412660 -0.721889 2.018164 0.000000 0.000000 0.000000 -0.454211 3.386304 -3.144126 1.173311 2.263824 -4.984136 7.381905 -36.381299 38.432058 0.000000 0.000000 0.000000 4.574997 8.726949 0.791380 9.675983 9.840647 7.796346 -0.654954 -60.357774 -25.052242 0.000000 0.000000 0.000000 4.411378 -7.325611 -4.243931 3.433832 8.516928 -0.019990 4.117199 -6.411711 3.731097 0.000000 0.000000 0.000000 2.050212 -6.122004 8.916898 2.261233 17.598553 -2.688528 0.501594 -6.943819 0.925421 0.000000 0.000000 0.000000 
-2995.267578 858.465759 1107.806030 -17.714695 2.273337 -3.658965 1.027268 5.440661 1.993367 0.646571 -0.812704 -0.468971 0.696771 1.080688 0.221890 -0.378821 -0.822336 1.890959 0.000000 0.000000 0.000000 -0.456569 3.151060 -3.268889 1.366011 2.235875 -4.455398 7.495075 -36.118662 37.985980 0.000000 0.000000 0.000000 4.539574 8.522036 0.902298 9.795878 9.680512 7.758122 -0.567808 -59.945610 -25.151497 0.000000 0.000000 0.000000 4.158249 -7.732914 -4.127455 3.137137 8.890450 -0.043634 3.843855 -6.903070 3.759398 0.000000 0.000000 0.000000 2.315089 -5.954836 8.991268 2.529747 16.776518 -2.640617 0.870420 -6.664447 1.043182 0.000000 0.000000 0.000000 
-2998.142578 857.697632 1108.697021 -18.179739 2.342244 -3.627753 1.071420 5.429078 1.882402 0.657544 -0.805004 -0.448805 0.701664 1.076038 0.200720 -0.365071 -0.855594 1.835780 0.000000 0.000000 0.000000 -0.443725 2.950472 -3.228761 1.499276 2.071914 -4.297931 7.626496 -35.910656 37.909122 0.000000 0.000000 0.000000 4.528075 8.428818 0.989909 9.955465 9.620166 7.742156 -0.458892 -59.923231 -25.248786 0.000000 0.000000 0.000000 3.775216 -8.187726 -3.919396 2.667720 10.200272 -0.439855 3.374564 -7.274006 3.666521 0.000000 0.000000 0.000000 2.465199 -5.465080 8.821785 2.703942 15.481911 -2.462795 1.219908 -6.358458 1.150026 0.000000 0.000000 0.000000 
-3000.705566 856.583374 1109.298950 -18.499467 2.377506 -3.491082 1.070380 5.444793 1.691796 0.622434 -0.833256 -0.417507 0.658667 1.102035 0.177348 -0.360526 -0.856349 1.813228 0.000000 0.000000 0.000000 -0.432974 2.771489 -3.121541 1.592353 1.846766 -4.331359 7.760346 -35.725080 38.048349 0.000000 0.000000 0.000000 4.517446 8.386718 1.058486 10.124314 9.606388 7.741748 -0.344982 -60.082478 -25.326139 0.000000 0.000000 0.000000 3.322871 -8.639669 -3.677948 2.109425 12.032234 -1.079588 2.757721 -7.500809 3.468185 0.000000 0.000000 0.000000 2.556889 -4.805128 8.515393 2.824810 13.958294 -2.229413 1.544842 -6.030990 1.245039 0.000000 0.000000 0.000000 
-3003.254150 855.125732 1109.385010 -18.642187 2.421850 -3.295672 1.034828 5.436103 1.487568 0.566571 -0.857554 -0.382085 0.595331 1.119883 0.156123 -0.355698 -0.853678 1.788589 0.000000 0.000000 0.000000 -0.460155 2.628763 -3.036020 1.655537 1.649916 -4.397843 7.874588 -35.640644 38.256133 0.000000 0.000000 0.000000 4.467924 8.305707 1.089010 10.295392 9.575077 7.844231 -0.236553 -60.215893 -25.417469 0.000000 0.000000 0.000000 2.945867 -8.850124 -3.584132 1.663479 13.432422 -1.571736 2.219466 -7.488948 3.233593 0.000000 0.000000 0.000000 2.599888 -4.289543 8.233721 2.886737 12.688075 -2.066016 1.766479 -5.795819 1.308861 0.000000 0.000000 0.000000 
-3005.995850 853.279297 1108.760986 -18.554375 2.504562 -3.069395 0.950956 5.365617 1.320752 0.483357 -0.846144 -0.359091 0.508246 1.104106 0.146501 -0.347753 -0.863099 1.753335 0.000000 0.000000 0.000000 -0.569848 2.505049 -3.007230 1.695840 1.481398 -4.462609 7.971911 -35.645222 38.510493 0.000000 0.000000 0.000000 4.348059 8.163995 1.075797 10.474763 9.515768 8.074045 -0.130587 -60.271372 -25.542753 0.000000 0.000000 0.000000 2.706487 -8.753538 -3.708729 1.400488 14.221411 -1.693352 1.889485 -7.161254 2.993001 0.000000 0.000000 0.000000 2.578994 -4.057507 8.081035 2.880653 11.861724 -2.070430 1.852245 -5.780024 1.341139 0.000000 0.000000 0.000000 
-3008.724121 851.088501 1107.620972 -18.296453 2.596987 -2.788183 0.833659 5.262683 1.148811 0.382064 -0.824123 -0.337706 0.404635 1.078435 0.140442 -0.339465 -0.868130 1.715569 0.000000 0.000000 0.000000 -0.717064 2.416378 -3.002223 1.706161 1.341085 -4.559633 8.049360 -35.750996 38.832964 0.000000 0.000000 0.000000 4.190411 7.982264 1.021356 10.655552 9.437859 8.407745 -0.030113 -60.296480 -25.680223 0.000000 0.000000 0.000000 2.535838 -8.438422 -3.981744 1.233716 14.633338 -1.606050 1.683145 -6.636287 2.745251 0.000000 0.000000 0.000000 2.505309 -3.972684 7.966491 2.821932 11.296711 -2.165226 1.848278 -5.900877 1.351461 0.000000 0.000000 0.000000 
